<svg id="identicon" xmlns="http://www.w3.org/2000/svg" viewBox="0 0 32 32">
    <title>Red Dragon OS</title>
<g transform="translate(0.000000,500.000000) scale(0.100000,-0.100000)"
fill="#000000" stroke="none">
<path d="M84 4568 c14 -24 151 -260 303 -525 l278 -482 1219 -1 c979 0 1217
-2 1213 -13 -2 -7 -138 -244 -301 -526 -163 -283 -296 -516 -296 -518 0 -1
274 -3 608 -3 l608 0 604 1048 c332 576 605 1050 607 1055 2 4 -1092 7 -2432
7 l-2436 0 25 -42z"/>
<path d="M1293 2488 c4 -13 555 -969 997 -1731 l213 -368 17 28 c42 67 580
1000 585 1013 3 9 -124 238 -297 540 l-303 525 -609 3 c-485 2 -607 0 -603
-10z"/>
</g>
</svg>
