<svg xmlns="http://www.w3.org/2000/svg" xmlns:xlink="http://www.w3.org/1999/xlink" zoomAndPan="magnify" viewBox="0 0 32 32" preserveAspectRatio="xMidYMid meet" version="1.0"><path fill="#2f51ce" d="M 288.714844 133.21875 C 284.03125 125.5625 278.429688 118.363281 272.035156 112.082031 C 251.582031 91.628906 223.246094 78.949219 192.058594 78.949219 C 160.867188 78.949219 132.53125 91.628906 112.082031 112.082031 C 99.855469 124.304688 90.488281 139.273438 84.773438 155.953125 L 210.792969 180.632812 L 219.820312 182.347656 L 320.589844 201.996094 L 334.414062 204.738281 C 331.328125 239.128906 316.132812 269.976562 293.167969 293.054688 C 267.347656 318.875 231.589844 334.871094 192.171875 334.871094 C 140.53125 334.871094 93.34375 315.21875 57.8125 283.117188 L 57.8125 283 C 87.972656 327.558594 138.246094 354.292969 192.171875 354.292969 C 236.957031 354.292969 277.515625 336.128906 306.878906 306.765625 C 336.242188 277.402344 354.410156 236.84375 354.410156 192.058594 C 354.410156 188.742188 354.292969 185.542969 354.179688 182.34375 L 334.414062 178.460938 L 303.679688 172.40625 L 202.109375 152.527344 L 380.117188 152.527344 C 382.742188 165.207031 384.113281 178.460938 384.113281 191.941406 C 384.113281 244.957031 362.636719 292.941406 327.902344 327.675781 C 293.167969 362.40625 245.183594 383.886719 192.171875 383.886719 C 139.160156 383.886719 91.171875 362.40625 56.441406 327.675781 C 35.191406 306.421875 18.851562 280.144531 9.367188 250.78125 C 35.417969 250.78125 61.46875 250.78125 87.515625 250.78125 L 95.515625 250.78125 C 100.199219 258.4375 105.796875 265.636719 112.195312 271.917969 C 132.644531 292.371094 160.980469 305.050781 192.171875 305.050781 C 223.363281 305.050781 251.695312 292.371094 272.148438 271.917969 C 284.371094 259.695312 293.742188 244.726562 299.339844 228.046875 L 180.976562 204.96875 L 164.292969 201.652344 L 63.523438 182.003906 L 49.699219 179.261719 C 52.671875 144.871094 67.980469 114.023438 90.945312 90.945312 C 116.765625 65.125 152.527344 49.128906 191.941406 49.128906 C 243.585938 49.128906 290.769531 68.78125 326.304688 100.882812 C 320.476562 92.316406 313.964844 84.433594 306.765625 77.234375 C 277.402344 47.871094 236.84375 29.707031 192.058594 29.707031 C 147.269531 29.707031 106.710938 47.871094 77.347656 77.234375 C 47.984375 106.597656 29.820312 147.15625 29.820312 191.941406 C 29.820312 195.257812 29.933594 198.457031 30.046875 201.652344 L 49.8125 205.539062 L 80.546875 211.59375 L 182.117188 231.472656 C 122.820312 231.472656 63.410156 231.472656 4.113281 231.472656 C 1.484375 218.792969 0.113281 205.539062 0.113281 192.058594 C 0.113281 139.042969 21.59375 91.058594 56.324219 56.324219 C 91.058594 21.59375 139.042969 0.113281 192.058594 0.113281 C 245.070312 0.113281 293.054688 21.59375 327.789062 56.324219 C 349.039062 77.578125 365.378906 103.855469 374.859375 133.21875 C 346.183594 133.21875 317.390625 133.21875 288.714844 133.21875 Z M 288.714844 133.21875 " fill-opacity="1" fill-rule="nonzero"/></svg>
